<svg xmlns="http://www.w3.org/2000/svg" xmlns:xlink="http://www.w3.org/1999/xlink" width="118" height="118" viewBox="0 0 118 118">
  <defs>
    <filter id="Rectangle_411831" x="0" y="0" width="118" height="118" filterUnits="userSpaceOnUse">
      <feOffset dy="3" input="SourceAlpha"/>
      <feGaussianBlur stdDeviation="3" result="blur"/>
      <feFlood flood-opacity="0.161"/>
      <feComposite operator="in" in2="blur"/>
      <feComposite in="SourceGraphic"/>
    </filter>
  </defs>
  <g id="Group_1297627" data-name="Group 1297627" transform="translate(-326.781 -3852)">
    <g transform="matrix(1, 0, 0, 1, 326.78, 3852)" filter="url(#Rectangle_411831)">
      <g id="Rectangle_411831-2" data-name="Rectangle 411831" transform="translate(9 6)" fill="#e8de49" stroke="#fff" stroke-width="2">
        <path d="M5,0H68a32,32,0,0,1,32,32V95a5,5,0,0,1-5,5H32A32,32,0,0,1,0,68V5A5,5,0,0,1,5,0Z" stroke="none"/>
        <path d="M5,1H68A31,31,0,0,1,99,32V95a4,4,0,0,1-4,4H32A31,31,0,0,1,1,68V5A4,4,0,0,1,5,1Z" fill="none"/>
      </g>
    </g>
    <g id="Group_1297652" data-name="Group 1297652" transform="translate(9089.789 5172.318)">
      <path id="Path_1533137" data-name="Path 1533137" d="M32.95,45.213l.214,1.481h-6.2l.106-1.481L29.316,19.5h.322Z" transform="translate(-8733.432 -1296.993)" fill="#747371" stroke="#000" stroke-width="2"/>
      <path id="Path_1533138" data-name="Path 1533138" d="M29.347,9.29a1,1,0,0,1-1.069-1.058V3.258a1.069,1.069,0,0,1,2.138,0V8.232A1.066,1.066,0,0,1,29.347,9.29" transform="translate(-8733.354 -1298)" fill="#545454" stroke="#000" stroke-width="2"/>
      <path id="Path_1533139" data-name="Path 1533139" d="M57.487,14.916H36.113a1.058,1.058,0,1,1,0-2.116H57.487a1.058,1.058,0,1,1,0,2.116" transform="translate(-8732.961 -1297.383)" fill="#545454" stroke="#000" stroke-width="2"/>
      <path id="Path_1533140" data-name="Path 1533140" d="M24.361,14.916H2.987a1.058,1.058,0,1,1,0-2.116H24.361a1.058,1.058,0,1,1,0,2.116" transform="translate(-8734.889 -1297.383)" fill="#545454" stroke="#000" stroke-width="2"/>
      <path id="Path_1533141" data-name="Path 1533141" d="M29.512,11.6a2.181,2.181,0,0,1,2.244,2.222,2.247,2.247,0,0,1-2.244,2.222,2.222,2.222,0,1,1,0-4.444" transform="translate(-8733.414 -1297.453)" fill="#747371" stroke="#000" stroke-width="2"/>
      <path id="Path_1533142" data-name="Path 1533142" d="M35.94,14.037a6.307,6.307,0,1,1-6.3-6.137,6.2,6.2,0,0,1,6.3,6.137" transform="translate(-8733.643 -1297.668)" fill="#79ccd0" stroke="#000" stroke-width="2"/>
      <path id="Path_1533143" data-name="Path 1533143" d="M53.167,56.207l.534,1.9H8.282l.533-1.9A10.407,10.407,0,0,1,18.755,48.8H43.227a10.094,10.094,0,0,1,9.939,7.407" transform="translate(-8734.519 -1295.289)" fill="#747371" stroke="#000" stroke-width="2"/>
      <path id="Path_1533144" data-name="Path 1533144" d="M48.164,13.8l6.519,16.084H41Z" transform="translate(-8732.614 -1297.325)" fill="#f6e58d" stroke="#000" stroke-width="2"/>
      <path id="Path_1533145" data-name="Path 1533145" d="M12.483,13.8l7.161,16.084H5.857Z" transform="translate(-8734.659 -1297.325)" fill="#f6e58d" stroke="#000" stroke-width="2"/>
      <path id="Path_1533146" data-name="Path 1533146" d="M19.844,29h3.527A10.474,10.474,0,0,1,2.424,29h17.42Z" transform="translate(-8734.859 -1296.441)" fill="#fbd864" stroke="#000" stroke-width="2"/>
      <path id="Path_1533147" data-name="Path 1533147" d="M54.877,29h3.741a10.474,10.474,0,0,1-20.947,0H54.877Z" transform="translate(-8732.809 -1296.441)" fill="#fbd864" stroke="#000" stroke-width="2"/>
      <path id="Path_1533156" data-name="Path 1533156" d="M60.915,58.716H1.069a1.058,1.058,0,1,1,0-2.116H60.915a1,1,0,0,1,1.069,1.058,1.066,1.066,0,0,1-1.069,1.058" transform="translate(-8735 -1294.835)" fill="#3e3e3f" stroke="#000" stroke-width="2"/>
      <path id="Path_1533157" data-name="Path 1533157" d="M47.526,15.137a1,1,0,0,1-1.069-1.058V10.058a1.069,1.069,0,0,1,2.138,0v4.021a1,1,0,0,1-1.069,1.058" transform="translate(-8732.297 -1297.604)" fill="#545454" stroke="#000" stroke-width="2"/>
      <path id="Path_1533158" data-name="Path 1533158" d="M12.178,15.137a1,1,0,0,1-1.069-1.058V10.058A1,1,0,0,1,12.178,9a1,1,0,0,1,1.069,1.058v4.021a1,1,0,0,1-1.069,1.058" transform="translate(-8734.354 -1297.604)" fill="#545454" stroke="#000" stroke-width="2"/>
      <path id="Path_1533159" data-name="Path 1533159" d="M29.571,17.161a3.281,3.281,0,1,1,3.313-3.28,3.313,3.313,0,0,1-3.313,3.28" transform="translate(-8733.473 -1297.511)" fill="#545454" stroke="#000" stroke-width="2"/>
      <path id="Path_1533160" data-name="Path 1533160" d="M42.6,43.8,42.5,49.091H17.169V43.8H27.642l-.107,1.481h6.2L33.52,43.8Z" transform="translate(-8734.001 -1295.579)" fill="#3e3e3f" stroke="#000" stroke-width="2"/>
    </g>
  </g>
</svg>
