<svg xmlns="http://www.w3.org/2000/svg" xmlns:xlink="http://www.w3.org/1999/xlink" width="118" height="118" viewBox="0 0 118 118">
  <defs>
    <filter id="Rectangle_411831" x="0" y="0" width="118" height="118" filterUnits="userSpaceOnUse">
      <feOffset dy="3" input="SourceAlpha"/>
      <feGaussianBlur stdDeviation="3" result="blur"/>
      <feFlood flood-opacity="0.161"/>
      <feComposite operator="in" in2="blur"/>
      <feComposite in="SourceGraphic"/>
    </filter>
  </defs>
  <g id="Group_1297500" data-name="Group 1297500" transform="translate(-326.781 -3852)">
    <g transform="matrix(1, 0, 0, 1, 326.78, 3852)" filter="url(#Rectangle_411831)">
      <g id="Rectangle_411831-2" data-name="Rectangle 411831" transform="translate(9 6)" fill="#a4e0d4" stroke="#fff" stroke-width="2">
        <path d="M5,0H68a32,32,0,0,1,32,32V95a5,5,0,0,1-5,5H32A32,32,0,0,1,0,68V5A5,5,0,0,1,5,0Z" stroke="none"/>
        <path d="M5,1H68A31,31,0,0,1,99,32V95a4,4,0,0,1-4,4H32A31,31,0,0,1,1,68V5A4,4,0,0,1,5,1Z" fill="none"/>
      </g>
    </g>
    <g id="Group_1297624" data-name="Group 1297624" transform="translate(-816.408 -16168.41)">
      <path id="Path_1532968" data-name="Path 1532968" d="M404.336,841.923v4.923l-7.72.672a22.082,22.082,0,0,1-4.362,10.405l5.035,5.929-3.581,3.468-6.041-4.922a22.629,22.629,0,0,1-10.405,4.251l-.671,7.719h-4.924L371,866.649a22.618,22.618,0,0,1-10.405-4.251l-6.042,4.922-3.468-3.468,5.035-5.929a22.757,22.757,0,0,1-4.363-10.405l-7.72-.672v-4.923l7.72-.671a22.071,22.071,0,0,1,4.363-10.405l-5.035-5.93,3.468-3.468,6.042,4.924A22.607,22.607,0,0,1,371,822.12l.671-7.719h4.924l.671,7.719a22.617,22.617,0,0,1,10.405,4.252l6.041-4.924,3.468,3.468-5.035,5.93a22.758,22.758,0,0,1,4.364,10.405Z" transform="translate(828.061 19231.914)" fill="#d7deed" stroke="#000" stroke-width="1"/>
      <path id="Path_1532969" data-name="Path 1532969" d="M376.656,875.206h-4.923a.644.644,0,0,1-.672-.671l-.672-7.161a22.574,22.574,0,0,1-9.733-4.027l-5.594,4.587a.68.68,0,0,1-.895,0l-3.468-3.468a.681.681,0,0,1,0-.9l4.587-5.593a23.581,23.581,0,0,1-4.028-9.621l-7.161-.672a.722.722,0,0,1-.671-.672V842.09a.645.645,0,0,1,.671-.671l7.161-.672a22.953,22.953,0,0,1,4.028-9.621l-4.587-5.594a.681.681,0,0,1,0-.9l3.468-3.468a.68.68,0,0,1,.895,0l5.594,4.588a24.036,24.036,0,0,1,9.733-4.028l.672-7.161a.722.722,0,0,1,.672-.671h4.923a.643.643,0,0,1,.671.671l.672,7.161a22.576,22.576,0,0,1,9.733,4.028l5.594-4.588a.681.681,0,0,1,.9,0l3.467,3.468a.681.681,0,0,1,0,.9l-4.587,5.594a23.589,23.589,0,0,1,4.028,9.621l7.161.672a.722.722,0,0,1,.671.671v4.923a.645.645,0,0,1-.671.672l-7.273.672a22.959,22.959,0,0,1-4.028,9.621l4.587,5.593a.681.681,0,0,1,0,.9l-3.468,3.468a.681.681,0,0,1-.9,0l-5.593-4.587A22.938,22.938,0,0,1,378,867.375l-.672,7.161a.72.72,0,0,1-.671.671m-4.252-1.453H376.1l.671-7.049a.711.711,0,0,1,.56-.672,21.717,21.717,0,0,0,10.069-4.139.681.681,0,0,1,.9,0l5.481,4.587,2.574-2.574-4.587-5.481a.677.677,0,0,1,0-.9A20.588,20.588,0,0,0,395.9,847.46a.627.627,0,0,1,.672-.56l7.161-.671v-3.692l-7.161-.672a.71.71,0,0,1-.672-.559,24.089,24.089,0,0,0-4.139-10.069.681.681,0,0,1,0-.9l4.587-5.481-2.574-2.462-5.594,4.588a.678.678,0,0,1-.895,0,21.034,21.034,0,0,0-10.069-4.141.626.626,0,0,1-.559-.671l-.673-7.049h-3.691l-.672,7.049a.707.707,0,0,1-.559.671,21.691,21.691,0,0,0-10.069,4.141.683.683,0,0,1-.9,0l-5.482-4.588-2.573,2.573,4.587,5.482a.676.676,0,0,1,0,.895,20.6,20.6,0,0,0-4.139,10.07.626.626,0,0,1-.672.559l-7.161.672v3.691l7.161.672a.71.71,0,0,1,.672.56,24.09,24.09,0,0,0,4.139,10.069.68.68,0,0,1,0,.895l-4.587,5.484,2.573,2.573L360.1,862a.68.68,0,0,1,.9,0,21.032,21.032,0,0,0,10.069,4.14.626.626,0,0,1,.559.672Z" transform="translate(827.995 19231.859)" stroke="#000" stroke-width="1"/>
      <path id="Path_1532970" data-name="Path 1532970" d="M371.25,829.036a.722.722,0,0,1-.671-.672v-3.8a.671.671,0,1,1,1.342,0v3.8a.723.723,0,0,1-.672.672" transform="translate(830.94 19232.943)" stroke="#000" stroke-width="1"/>
      <path id="Path_1532971" data-name="Path 1532971" d="M378.013,830.808a.416.416,0,0,1-.337-.111.731.731,0,0,1-.223-1.009l1.9-3.243a.729.729,0,1,1,1.23.784l-1.9,3.243a.674.674,0,0,1-.671.336" transform="translate(831.673 19233.184)" stroke="#000" stroke-width="1"/>
      <path id="Path_1532972" data-name="Path 1532972" d="M383.059,835.623a.615.615,0,0,1-.559-.336.729.729,0,0,1,.223-1.007l3.246-1.9a.73.73,0,0,1,.783,1.232l-3.244,1.9a.844.844,0,0,1-.448.112" transform="translate(832.22 19233.852)" stroke="#000" stroke-width="1"/>
      <path id="Path_1532973" data-name="Path 1532973" d="M388.568,842.187h-3.692a.671.671,0,1,1,0-1.342h3.8a.722.722,0,0,1,.671.672.748.748,0,0,1-.783.671" transform="translate(832.418 19234.781)" stroke="#000" stroke-width="1"/>
      <path id="Path_1532974" data-name="Path 1532974" d="M386.3,850.864a.41.41,0,0,1-.336-.112l-3.244-1.9a.73.73,0,0,1,.784-1.232l3.243,1.9a.727.727,0,0,1,.224,1.006.967.967,0,0,1-.671.336" transform="translate(832.22 19235.504)" stroke="#000" stroke-width="1"/>
      <path id="Path_1532975" data-name="Path 1532975" d="M379.915,857.152a.616.616,0,0,1-.56-.336l-1.9-3.244a.73.73,0,1,1,1.232-.784l1.9,3.246a.727.727,0,0,1-.224,1.007.843.843,0,0,1-.447.112" transform="translate(831.673 19236.041)" stroke="#000" stroke-width="1"/>
      <path id="Path_1532976" data-name="Path 1532976" d="M371.25,859.517a.721.721,0,0,1-.671-.671v-3.8a.671.671,0,1,1,1.342,0v3.8a.722.722,0,0,1-.672.671" transform="translate(830.94 19236.25)" stroke="#000" stroke-width="1"/>
      <path id="Path_1532977" data-name="Path 1532977" d="M362.771,857.152a.411.411,0,0,1-.336-.112.728.728,0,0,1-.223-1.007l1.9-3.246a.73.73,0,1,1,1.232.784l-1.9,3.244a.968.968,0,0,1-.672.336" transform="translate(830.02 19236.041)" stroke="#000" stroke-width="1"/>
      <path id="Path_1532978" data-name="Path 1532978" d="M356.514,850.864a.613.613,0,0,1-.559-.336.729.729,0,0,1,.223-1.006l3.246-1.9a.73.73,0,0,1,.783,1.232l-3.244,1.9a.847.847,0,0,1-.448.112" transform="translate(829.341 19235.504)" stroke="#000" stroke-width="1"/>
      <path id="Path_1532979" data-name="Path 1532979" d="M358,842.187h-3.8a.671.671,0,1,1,0-1.342H358a.721.721,0,0,1,.671.672.644.644,0,0,1-.671.671" transform="translate(829.09 19234.781)" stroke="#000" stroke-width="1"/>
      <path id="Path_1532980" data-name="Path 1532980" d="M359.759,835.623a.411.411,0,0,1-.336-.112l-3.244-1.9a.73.73,0,1,1,.784-1.232l3.244,1.9a.727.727,0,0,1,.223,1.007.8.8,0,0,1-.671.336" transform="translate(829.341 19233.852)" stroke="#000" stroke-width="1"/>
      <path id="Path_1532981" data-name="Path 1532981" d="M364.674,830.808a.614.614,0,0,1-.56-.336l-1.9-3.243a.73.73,0,1,1,1.232-.784l1.9,3.243a.731.731,0,0,1-.224,1.009.847.847,0,0,1-.447.111" transform="translate(830.02 19233.184)" stroke="#000" stroke-width="1"/>
      <path id="Path_1532982" data-name="Path 1532982" d="M362.166,848.465a.613.613,0,0,1-.559-.336.728.728,0,0,1,.223-1.006l10.069-6.265a.729.729,0,1,1,.784,1.23l-10.069,6.265a.846.846,0,0,1-.448.112" transform="translate(829.954 19234.771)" stroke="#000" stroke-width="1"/>
      <path id="Path_1532983" data-name="Path 1532983" d="M371.25,843.162a.721.721,0,0,1-.671-.671v-9.958a.671.671,0,0,1,1.342,0v9.958a.722.722,0,0,1-.672.671" transform="translate(830.94 19233.809)" stroke="#000" stroke-width="1"/>
    </g>
  </g>
</svg>
